<svg xmlns="http://www.w3.org/2000/svg" viewBox="0 0 505.17 369.17"><defs><style>.cls-1{fill:#46bdd1;}.cls-2{fill:#94d1d6;}.cls-3{fill:#59c0cd;}.cls-4{fill:#c4e3da;}.cls-5{fill:#008ed0;}.cls-6{fill:#0065b1;}.cls-7{fill:#27a8e0;}.cls-8{fill:#004d9d;}.cls-9{fill:#1e3c91;}</style></defs><g id="Layer_2" data-name="Layer 2"><g id="Capa_1" data-name="Capa 1"><polygon class="cls-1" points="427.45 58.28 446.88 58.28 466.31 58.28 485.74 58.28 485.74 77.72 505.17 77.72 505.17 58.28 505.17 38.85 505.17 19.43 505.17 0 485.74 0 485.74 19.43 485.74 38.85 466.31 38.85 446.88 38.85 446.88 19.43 427.45 19.43 427.45 38.85 427.45 58.28"/><polygon class="cls-1" points="408.02 19.43 427.45 19.43 427.45 0 408.02 0 388.6 0 369.17 0 369.17 19.43 388.6 19.43 408.02 19.43"/><polygon class="cls-1" points="38.85 77.72 58.28 77.72 58.28 58.28 38.85 58.28 19.43 58.28 19.43 38.85 38.85 38.85 58.28 38.85 77.71 38.85 77.71 58.28 97.14 58.28 116.57 58.28 136 58.28 155.44 58.28 155.44 77.72 174.87 77.72 174.87 97.14 194.3 97.14 213.73 97.14 233.15 97.14 252.58 97.14 252.58 77.72 272.01 77.72 291.44 77.72 310.87 77.72 330.31 77.72 349.74 77.72 369.17 77.72 388.6 77.72 408.02 77.72 427.45 77.72 427.45 58.28 408.02 58.28 388.6 58.28 369.17 58.28 349.74 58.28 349.74 38.85 330.31 38.85 330.31 58.28 310.87 58.28 291.44 58.28 291.44 38.85 272.01 38.85 272.01 19.43 252.58 19.43 252.58 38.85 233.15 38.85 213.73 38.85 213.73 19.43 194.3 19.43 174.87 19.43 155.44 19.43 155.44 38.85 136 38.85 116.57 38.85 97.14 38.85 97.14 19.43 77.71 19.43 58.28 19.43 58.28 0 38.85 0 19.43 0 0 0 0 19.43 0 38.85 0 58.28 0 77.72 19.43 77.72 38.85 77.72"/><rect class="cls-1" x="349.74" y="19.43" width="19.43" height="19.42"/><polygon class="cls-2" points="136 58.28 116.57 58.28 97.14 58.28 77.71 58.28 77.71 38.85 58.28 38.85 38.85 38.85 19.43 38.85 19.43 58.28 38.85 58.28 58.28 58.28 58.28 77.72 77.71 77.72 97.14 77.72 97.14 97.14 116.57 97.14 136 97.14 136 77.72 155.44 77.72 155.44 58.28 136 58.28"/><polygon class="cls-2" points="466.31 58.28 446.88 58.28 427.45 58.28 427.45 77.72 408.02 77.72 388.6 77.72 388.6 97.14 408.02 97.14 427.45 97.14 446.88 97.14 466.31 97.14 466.31 77.72 485.74 77.72 485.74 58.28 466.31 58.28"/><polygon class="cls-2" points="369.17 58.28 388.6 58.28 408.02 58.28 427.45 58.28 427.45 38.85 427.45 19.43 408.02 19.43 388.6 19.43 369.17 19.43 369.17 38.85 349.74 38.85 349.74 58.28 369.17 58.28"/><polygon class="cls-2" points="310.87 58.28 330.31 58.28 330.31 38.85 310.87 38.85 291.44 38.85 291.44 58.28 310.87 58.28"/><polygon class="cls-3" points="38.85 116.58 58.28 116.58 77.71 116.58 77.71 136.01 97.14 136.01 116.57 136.01 116.57 116.58 136 116.58 155.44 116.58 174.87 116.58 194.3 116.58 213.73 116.58 233.15 116.58 252.58 116.58 252.58 136.01 272.01 136.01 272.01 155.44 291.44 155.44 291.44 136.01 310.87 136.01 310.87 116.58 330.31 116.58 349.74 116.58 369.17 116.58 388.6 116.58 408.02 116.58 427.45 116.58 446.88 116.58 466.31 116.58 485.74 116.58 505.17 116.58 505.17 97.14 505.17 77.72 485.74 77.72 466.31 77.72 466.31 97.14 446.88 97.14 427.45 97.14 408.02 97.14 388.6 97.14 388.6 77.72 369.17 77.72 349.74 77.72 330.31 77.72 310.87 77.72 291.44 77.72 272.01 77.72 252.58 77.72 252.58 97.14 233.15 97.14 213.73 97.14 194.3 97.14 174.87 97.14 174.87 77.72 155.44 77.72 136 77.72 136 97.14 116.57 97.14 97.14 97.14 97.14 77.72 77.71 77.72 58.28 77.72 38.85 77.72 19.43 77.72 0 77.72 0 97.14 0 116.58 19.43 116.58 38.85 116.58"/><rect class="cls-3" x="116.57" y="136.01" width="19.43" height="19.43"/><polygon class="cls-4" points="233.15 38.85 252.58 38.85 252.58 19.43 233.15 19.43 213.73 19.43 213.73 38.85 233.15 38.85"/><polygon class="cls-4" points="136 116.58 116.57 116.58 116.57 136.01 136 136.01 155.44 136.01 155.44 155.44 174.87 155.44 174.87 136.01 174.87 116.58 155.44 116.58 136 116.58"/><rect class="cls-4" x="38.86" y="155.44" width="19.43" height="19.43"/><polygon class="cls-4" points="408.02 116.58 388.6 116.58 388.6 136.01 369.17 136.01 349.74 136.01 330.31 136.01 330.31 155.44 349.74 155.44 369.17 155.44 388.6 155.44 408.02 155.44 408.02 136.01 427.45 136.01 427.45 155.44 446.88 155.44 466.31 155.44 485.74 155.44 485.74 136.01 466.31 136.01 446.88 136.01 446.88 116.58 427.45 116.58 408.02 116.58"/><polygon class="cls-5" points="38.85 233.15 58.28 233.15 77.71 233.15 97.14 233.15 116.57 233.15 136 233.15 136 252.59 155.44 252.59 174.87 252.59 194.3 252.59 213.73 252.59 233.15 252.59 252.58 252.59 272.01 252.59 272.01 233.15 291.44 233.15 310.87 233.15 330.31 233.15 349.74 233.15 369.17 233.15 388.6 233.15 408.02 233.15 427.45 233.15 446.88 233.15 466.31 233.15 485.74 233.15 505.17 233.15 505.17 213.72 505.17 194.3 505.17 174.87 485.74 174.87 466.31 174.87 446.88 174.87 427.45 174.87 408.02 174.87 388.6 174.87 369.17 174.87 349.74 174.87 330.31 174.87 310.87 174.87 291.44 174.87 291.44 194.3 272.01 194.3 272.01 213.72 252.58 213.72 233.15 213.72 213.73 213.72 213.73 194.3 194.3 194.3 194.3 174.87 174.87 174.87 155.44 174.87 136 174.87 116.57 174.87 116.57 194.3 97.14 194.3 77.71 194.3 77.71 174.87 58.28 174.87 38.85 174.87 19.43 174.87 0 174.87 0 194.3 0 213.72 0 233.15 19.43 233.15 38.85 233.15"/><polygon class="cls-6" points="38.85 272.01 58.28 272.01 77.71 272.01 97.14 272.01 116.57 272.01 116.57 291.44 136 291.44 155.44 291.44 174.87 291.44 174.87 272.01 194.3 272.01 213.73 272.01 233.15 272.01 252.58 272.01 272.01 272.01 291.44 272.01 291.44 252.59 310.87 252.59 330.31 252.59 330.31 233.15 310.87 233.15 291.44 233.15 272.01 233.15 272.01 252.59 252.58 252.59 233.15 252.59 213.73 252.59 194.3 252.59 174.87 252.59 155.44 252.59 136 252.59 136 233.15 116.57 233.15 97.14 233.15 77.71 233.15 58.28 233.15 38.85 233.15 19.43 233.15 0 233.15 0 252.59 0 272.01 19.43 272.01 38.85 272.01"/><polygon class="cls-6" points="466.31 233.15 446.88 233.15 427.45 233.15 408.02 233.15 388.6 233.15 388.6 252.59 369.17 252.59 349.74 252.59 349.74 272.01 330.31 272.01 310.87 272.01 310.87 291.44 330.31 291.44 349.74 291.44 369.17 291.44 388.6 291.44 388.6 272.01 408.02 272.01 427.45 272.01 446.88 272.01 466.31 272.01 485.74 272.01 505.17 272.01 505.17 252.59 505.17 233.15 485.74 233.15 466.31 233.15"/><polygon class="cls-7" points="38.85 174.87 38.85 155.44 58.28 155.44 58.28 174.87 77.71 174.87 77.71 194.3 97.14 194.3 116.57 194.3 116.57 174.87 136 174.87 155.44 174.87 174.87 174.87 194.3 174.87 194.3 194.3 213.73 194.3 213.73 213.72 233.15 213.72 252.58 213.72 272.01 213.72 272.01 194.3 291.44 194.3 291.44 174.87 310.87 174.87 330.31 174.87 349.74 174.87 369.17 174.87 388.6 174.87 408.02 174.87 427.45 174.87 446.88 174.87 466.31 174.87 485.74 174.87 505.17 174.87 505.17 155.44 505.17 136.01 505.17 116.58 485.74 116.58 466.31 116.58 446.88 116.58 446.88 136.01 466.31 136.01 485.74 136.01 485.74 155.44 466.31 155.44 446.88 155.44 427.45 155.44 427.45 136.01 408.02 136.01 408.02 155.44 388.6 155.44 369.17 155.44 349.74 155.44 330.31 155.44 330.31 136.01 349.74 136.01 369.17 136.01 388.6 136.01 388.6 116.58 369.17 116.58 349.74 116.58 330.31 116.58 310.87 116.58 310.87 136.01 291.44 136.01 291.44 155.44 272.01 155.44 272.01 136.01 252.58 136.01 252.58 116.58 233.15 116.58 213.73 116.58 194.3 116.58 174.87 116.58 174.87 136.01 174.87 155.44 155.44 155.44 155.44 136.01 136 136.01 136 155.44 116.57 155.44 116.57 136.01 97.14 136.01 77.71 136.01 77.71 116.58 58.28 116.58 38.85 116.58 19.43 116.58 0 116.58 0 136.01 0 155.44 0 174.87 19.43 174.87 38.85 174.87"/><polygon class="cls-7" points="310.87 291.44 310.87 272.01 330.31 272.01 349.74 272.01 349.74 252.59 369.17 252.59 388.6 252.59 388.6 233.15 369.17 233.15 349.74 233.15 330.31 233.15 330.31 252.59 310.87 252.59 291.44 252.59 291.44 272.01 291.44 291.44 310.87 291.44"/><polygon class="cls-7" points="97.14 272.01 77.71 272.01 77.71 291.44 97.14 291.44 116.57 291.44 116.57 272.01 97.14 272.01"/><rect class="cls-7" x="174.87" y="272.01" width="19.43" height="19.43"/><polygon class="cls-7" points="174.87 291.44 155.44 291.44 136 291.44 116.57 291.44 116.57 310.88 136 310.88 155.44 310.88 174.87 310.88 174.87 291.44"/><rect class="cls-7" x="38.86" y="272.01" width="19.43" height="19.43"/><rect class="cls-7" x="408.02" y="310.88" width="19.43" height="19.43"/><polygon class="cls-7" points="466.31 291.44 446.88 291.44 446.88 310.88 466.31 310.88 485.74 310.88 505.17 310.88 505.17 291.44 485.74 291.44 466.31 291.44"/><polygon class="cls-8" points="38.85 310.88 58.28 310.88 58.28 330.31 77.71 330.31 97.14 330.31 97.14 310.88 116.57 310.88 116.57 291.44 97.14 291.44 77.71 291.44 77.71 272.01 58.28 272.01 58.28 291.44 38.85 291.44 38.85 272.01 19.43 272.01 0 272.01 0 291.44 0 310.88 19.43 310.88 38.85 310.88"/><polygon class="cls-8" points="466.31 272.01 446.88 272.01 427.45 272.01 408.02 272.01 388.6 272.01 388.6 291.44 369.17 291.44 349.74 291.44 330.31 291.44 310.87 291.44 291.44 291.44 291.44 272.01 272.01 272.01 252.58 272.01 233.15 272.01 213.73 272.01 194.3 272.01 194.3 291.44 174.87 291.44 174.87 310.88 155.44 310.88 155.44 330.31 174.87 330.31 194.3 330.31 213.73 330.31 213.73 310.88 233.15 310.88 252.58 310.88 272.01 310.88 291.44 310.88 310.87 310.88 330.31 310.88 349.74 310.88 369.17 310.88 369.17 330.31 388.6 330.31 408.02 330.31 408.02 310.88 427.45 310.88 427.45 330.31 446.88 330.31 446.88 310.88 446.88 291.44 466.31 291.44 485.74 291.44 505.17 291.44 505.17 272.01 485.74 272.01 466.31 272.01"/><polygon class="cls-9" points="38.85 369.17 58.28 369.17 77.71 369.17 97.14 369.17 116.57 369.17 136 369.17 155.44 369.17 174.87 369.17 194.3 369.17 213.73 369.17 233.15 369.17 252.58 369.17 272.01 369.17 291.44 369.17 310.87 369.17 330.31 369.17 349.74 369.17 369.17 369.17 388.6 369.17 408.02 369.17 427.45 369.17 446.88 369.17 466.31 369.17 485.74 369.17 505.17 369.17 505.17 349.74 505.17 330.31 505.17 310.88 485.74 310.88 466.31 310.88 446.88 310.88 446.88 330.31 427.45 330.31 408.02 330.31 388.6 330.31 369.17 330.31 369.17 310.88 349.74 310.88 330.31 310.88 310.87 310.88 291.44 310.88 272.01 310.88 252.58 310.88 233.15 310.88 213.73 310.88 213.73 330.31 194.3 330.31 174.87 330.31 155.44 330.31 155.44 310.88 136 310.88 116.57 310.88 97.14 310.88 97.14 330.31 77.71 330.31 58.28 330.31 58.28 310.88 38.85 310.88 19.43 310.88 0 310.88 0 330.31 0 349.74 0 369.17 19.43 369.17 38.85 369.17"/></g></g></svg>